<svg xmlns="http://www.w3.org/2000/svg" viewBox="0 0 319.75 93.77"><defs><style>.cls-1,.cls-2{fill:#fefefe;}.cls-2{stroke:#1c1c1c;stroke-miterlimit:10;}.cls-3{fill:#fff;}</style></defs><title>brand-white</title><g id="Capa_2" data-name="Capa 2"><g id="Capa_1-2" data-name="Capa 1"><path class="cls-1" d="M39.09,67.61A13.08,13.08,0,1,0,52.17,80.69,13.08,13.08,0,0,0,39.09,67.61Zm0,18.35a5.27,5.27,0,1,1,5.27-5.27A5.27,5.27,0,0,1,39.09,86Z"/><path class="cls-2" d="M44.9,9.53"/><path class="cls-1" d="M31.32,17.59A16.4,16.4,0,0,1,32.67,15,10.07,10.07,0,0,0,31.32,17.59Z"/><path class="cls-1" d="M30.9,18.75H31c.11-.41.23-.8.36-1.16C31,18.29,30.9,18.75,30.9,18.75Z"/><path class="cls-1" d="M125.93,47.26c-3.45-1.17-5.16-8.55-5.86-11.74s-.5-11-.89-16.25-5.27-7.54-9.51-8.86-13.67-.47-18,0-12.32,1-18.5,1.2c-4.52.15-17.44-1-26.41-1.27a64.24,64.24,0,0,0-7.32,0l-.33,0A9.11,9.11,0,0,0,32.67,15a16.4,16.4,0,0,0-1.35,2.63c-.13.36-.25.75-.36,1.16l15.81-.14,42-.37v6.3c0,6.3,2.56,23.9,2.56,23.9h38.08Z"/><path class="cls-1" d="M73.11,0c-9.52,0-18.4.23-25.9.63l.85,7.06c7.32.37,15.89.59,25.05.59,10.89,0,20.94-.3,29.05-.82l.77-6.6C94.69.32,84.35,0,73.11,0Z"/><path class="cls-1" d="M84.75,54.56c.21-.19.43-.36.64-.53l-28.79.31V75.29H83S79.8,59,84.75,54.56Z"/><path class="cls-1" d="M100.81,50.55a20,20,0,0,0-12.3,3.55c-.26.19-.52.37-.77.57-6,4.79-2.08,22.5-2.08,22.5H54.18a15.79,15.79,0,0,1,.39,2.18,15.42,15.42,0,0,1-.18,4.39C64.38,83.85,80,84,93,84a15.91,15.91,0,0,1,28.49-13c0-1,0-1.84,0-2.61,0-4.9.87-10.5,2.62-14.17s6.52-3.78,6.52-3.78Z"/><path class="cls-1" d="M48,19V50.1H24.25l4,2.75C31.57,55.11,31.15,59,31.11,67a15.94,15.94,0,0,1,22.72,9V19Z"/><path class="cls-1" d="M141.52,44.26a13.49,13.49,0,0,1-5.66-2.41,9.46,9.46,0,0,1-3.29-4.41,22.29,22.29,0,0,1-1-7.4V20.8q0-9.87-7.92-14.9t-19.25-5l-.47,6.4q9,0,14.21,3.49a11.38,11.38,0,0,1,5.19,10V31.51q0,7.45,3.68,11.55a17,17,0,0,0,9.43,5.3v.16A17.16,17.16,0,0,0,126.87,54q-3.53,4.12-3.53,11.36V73a16.44,16.44,0,0,1-3.06,19.79A29.47,29.47,0,0,0,123.66,91q7.92-5,7.92-15V66.83a22.6,22.6,0,0,1,1-7.53,9.29,9.29,0,0,1,3.2-4.38,15.34,15.34,0,0,1,5.81-2.39,75.67,75.67,0,0,1,8.72-1.23V45.57Q144.81,44.89,141.52,44.26Z"/><path class="cls-1" d="M27,70.8V65.36Q27,58.12,23.46,54a17.16,17.16,0,0,0-9.58-5.48v-.16a17,17,0,0,0,9.43-5.3Q27,39,27,31.51V20.8a11.38,11.38,0,0,1,5.19-10q5.19-3.49,14.21-3.49L45.91.86q-11.33,0-19.25,5T18.74,20.8V30a22.29,22.29,0,0,1-1,7.4,9.46,9.46,0,0,1-3.29,4.41,13.49,13.49,0,0,1-5.66,2.41Q5.52,44.89,0,45.57v5.72a75.67,75.67,0,0,1,8.72,1.23,15.34,15.34,0,0,1,5.81,2.39,9.29,9.29,0,0,1,3.2,4.38,22.6,22.6,0,0,1,1,7.53V76q0,10,7.92,15l.53.31A15.43,15.43,0,0,1,27,70.8Z"/><path class="cls-1" d="M109,67.61A13.08,13.08,0,1,0,122,80.69,13.08,13.08,0,0,0,109,67.61ZM109,86a5.27,5.27,0,1,1,5.27-5.27A5.27,5.27,0,0,1,109,86Z"/><path class="cls-3" d="M185.48,38.65h5.59l4.62,9,4.51-9h5.59V57.12H200.2V47.26l-3.41,6.45h-2.28l-3.44-6.45v9.86h-5.59Z"/><path class="cls-3" d="M208.38,47.91a9.36,9.36,0,0,1,9.89-9.66,10.92,10.92,0,0,1,4.08.73,9.12,9.12,0,0,1,3.11,2,8.81,8.81,0,0,1,2,3.06,10.92,10.92,0,0,1,.41,6.33,9.49,9.49,0,0,1-.86,2.28,9.24,9.24,0,0,1-1.41,2,8.72,8.72,0,0,1-1.93,1.55,9.68,9.68,0,0,1-2.44,1,11.29,11.29,0,0,1-2.93.36,11.41,11.41,0,0,1-3-.37,9.77,9.77,0,0,1-2.46-1,8.55,8.55,0,0,1-1.93-1.56,9.12,9.12,0,0,1-1.39-2,9.65,9.65,0,0,1-.84-2.26A10.55,10.55,0,0,1,208.38,47.91Zm9.89,4.75a3.35,3.35,0,0,0,1.76-.44,3.77,3.77,0,0,0,1.19-1.13,4.87,4.87,0,0,0,.68-1.54,6.77,6.77,0,0,0,.22-1.67,6.69,6.69,0,0,0-.27-1.95,4.7,4.7,0,0,0-.77-1.53,3.79,3.79,0,0,0-1.22-1,3.7,3.7,0,0,0-1.59-.42,3.55,3.55,0,0,0-1.78.47,3.77,3.77,0,0,0-1.2,1.15,5,5,0,0,0-.68,1.57,7.21,7.21,0,0,0-.22,1.74,6.4,6.4,0,0,0,.27,1.89,4.55,4.55,0,0,0,.77,1.51,3.67,3.67,0,0,0,1.23,1A3.5,3.5,0,0,0,218.26,52.66Z"/><path class="cls-3" d="M233.06,42.56h-3.83V38.65h13.92v3.91h-3.83V57.12h-6.27Z"/><path class="cls-3" d="M244.25,47.91a9.36,9.36,0,0,1,9.89-9.66,10.92,10.92,0,0,1,4.08.73,9.12,9.12,0,0,1,3.11,2,8.81,8.81,0,0,1,2,3.06,10.91,10.91,0,0,1,.41,6.33,9.49,9.49,0,0,1-.86,2.28,9.26,9.26,0,0,1-1.41,2,8.74,8.74,0,0,1-1.93,1.55,9.68,9.68,0,0,1-2.44,1,11.29,11.29,0,0,1-2.93.36,11.41,11.41,0,0,1-3-.37,9.77,9.77,0,0,1-2.46-1,8.55,8.55,0,0,1-1.93-1.56,9.12,9.12,0,0,1-1.39-2,9.65,9.65,0,0,1-.84-2.26A10.55,10.55,0,0,1,244.25,47.91Zm9.89,4.75a3.35,3.35,0,0,0,1.76-.44,3.77,3.77,0,0,0,1.19-1.13,4.87,4.87,0,0,0,.68-1.54,6.77,6.77,0,0,0,.22-1.67,6.69,6.69,0,0,0-.27-1.95A4.7,4.7,0,0,0,257,44.4a3.79,3.79,0,0,0-1.22-1,3.7,3.7,0,0,0-1.59-.42,3.55,3.55,0,0,0-1.78.47,3.77,3.77,0,0,0-1.2,1.15,5,5,0,0,0-.68,1.57,7.21,7.21,0,0,0-.22,1.74,6.4,6.4,0,0,0,.27,1.89,4.55,4.55,0,0,0,.77,1.51,3.67,3.67,0,0,0,1.23,1A3.5,3.5,0,0,0,254.14,52.66Z"/><path class="cls-3" d="M274.48,57.12h-3.75v-15h-5.65V38.31h15v3.76h-5.64Z"/><path class="cls-3" d="M296.37,57.12h-3.76V53.35h-7.53v3.76h-3.75V45.84a7.33,7.33,0,0,1,.59-2.93,7.66,7.66,0,0,1,1.61-2.39,7.53,7.53,0,0,1,2.39-1.61,7.57,7.57,0,0,1,5.86,0,7.55,7.55,0,0,1,4,4,7.35,7.35,0,0,1,.59,2.93Zm-3.76-7.51V45.84a3.67,3.67,0,0,0-.29-1.46,3.76,3.76,0,0,0-2-2,3.77,3.77,0,0,0-2.92,0,3.76,3.76,0,0,0-2,2,3.67,3.67,0,0,0-.29,1.46V49.6Z"/><path class="cls-3" d="M314.24,57.12h-4.56L306.06,51l-3.63,6.07h-4.54l5.77-9.4-5.77-9.4h4.54l3.63,6.07,3.62-6.07h4.56l-5.77,9.4Z"/><path class="cls-3" d="M319.75,57.12H316V38.31h3.76Z"/></g></g></svg>