<?xml version="1.0" encoding="UTF-8"?>
<svg width="104px" height="105px" viewBox="0 0 104 105" version="1.1" xmlns="http://www.w3.org/2000/svg" xmlns:xlink="http://www.w3.org/1999/xlink">
    <!-- Generator: Sketch 45.2 (43514) - http://www.bohemiancoding.com/sketch -->
    <title>Page 1</title>
    <desc>Created with Sketch.</desc>
    <defs>
        <polygon id="path-1" points="0 108.524908 106.310114 108.524908 106.310114 0.0885917619 0 0.0885917619"></polygon>
    </defs>
    <g id="Page-1" stroke="none" stroke-width="1" fill="none" fill-rule="evenodd">
        <g id="Design-proposal-Copy" transform="translate(-181.000000, -771.000000)">
            <g id="Page-1" transform="translate(181.000000, 770.000000)">
                <g id="Group-5" transform="translate(22.147940, 1.116768)">
                    <path d="M20.3765482,36.0659969 C19.3976092,36.0659969 18.604713,35.2731006 18.604713,34.2941617 L18.604713,30.9719706 C18.6069277,27.0584295 15.4353427,23.8846296 11.5195868,23.8824148 C7.60604571,23.8802001 4.43224585,27.0517851 4.43003105,30.9653262 L4.43003105,30.9719706 L4.43003105,34.2941617 C4.43003105,35.2731006 3.63491999,36.0659969 2.65819581,36.0659969 C1.67925685,36.0659969 0.886360577,35.2731006 0.886360577,34.2941617 L0.886360577,30.9719706 C0.886360577,25.1005516 5.64595298,20.3409592 11.517372,20.3409592 C17.388791,20.3409592 22.1483834,25.1005516 22.1483834,30.9719706 L22.1483834,34.2941617 C22.1483834,35.2731006 21.3532724,36.0659969 20.3765482,36.0659969" id="Fill-1" fill="#8E283E"></path>
                    <path d="M75.3029976,2.82238122 C70.9487125,-0.50423944 64.7229264,0.326308327 61.394091,4.68059342 C60.0962217,6.38155525 59.3808432,8.45460248 59.3564804,10.5963083 L59.3564804,91.2148116 L66.4438214,91.2148116 L66.4438214,10.5963083 C66.4438214,9.12789987 67.6331658,7.93855547 69.1015743,7.93855547 C70.5677679,7.93855547 71.7593271,9.12789987 71.7593271,10.5963083 L71.7593271,16.7977317 L78.8466681,16.7977317 L78.8466681,9.51105924 C78.868816,6.82672885 77.5377248,4.31072282 75.3029976,2.82238122" id="Fill-3" fill="#C7CAC7"></path>
                </g>
                <polygon id="Fill-6" fill="#93868B" points="7.08734095 104.734205 14.1746819 104.734205 14.1746819 87.0158527 7.08734095 87.0158527"></polygon>
                <polygon id="Fill-7" fill="#93868B" points="53.1550571 104.734205 60.2423981 104.734205 60.2423981 87.0158527 53.1550571 87.0158527"></polygon>
                <g id="Group-23" transform="translate(0.000000, 0.107334)">
                    <path d="M33.6653125,33.7532398 C48.3427526,33.7532398 60.242841,45.6533282 60.242841,60.3307683 L60.242841,86.9082969 L53.1555001,86.9082969 L53.1555001,101.082979 L14.1751249,101.082979 L14.1751249,86.9082969 L7.08778391,86.9082969 L7.08778391,60.3307683 C7.08778391,45.6533282 18.9878723,33.7532398 33.6653125,33.7532398 Z" id="Fill-8" fill="#A64141"></path>
                    <path d="M46.0672732,97.5399728 L21.2615799,97.5399728 C20.2826409,97.5399728 19.4897447,96.7492913 19.4875299,95.7703523 C19.4875299,94.7914134 20.2782113,93.9963023 21.2571503,93.9940875 L21.2615799,93.9940875 L46.0672732,93.9940875 C47.0462122,93.9940875 47.8413232,94.7869838 47.8413232,95.7637079 C47.843538,96.7448617 47.0506418,97.537758 46.0717028,97.5399728 L46.0672732,97.5399728 Z" id="Fill-10" fill="#4F0009"></path>
                    <path d="M46.0672732,90.4521889 L21.2615799,90.4521889 C20.2826409,90.4544037 19.4897447,89.6615074 19.4875299,88.6825684 C19.4875299,87.7058442 20.2782113,86.9085184 21.2571503,86.9085184 L21.2615799,86.9085184 L46.0672732,86.9085184 C47.0462122,86.9063036 47.8413232,87.6991999 47.8413232,88.6781388 C47.843538,89.6570778 47.0506418,90.4499741 46.0717028,90.4521889 L46.0672732,90.4521889 Z" id="Fill-12" fill="#4F0009"></path>
                    <path d="M49.6111652,60.3318757 C49.6111652,70.1212654 42.4795283,78.0502281 33.664648,78.0502281 C24.8497677,78.0502281 17.7181309,70.1212654 17.7181309,60.3318757 C17.7181309,50.5424861 24.8497677,42.6135234 33.664648,42.6135234 C42.4795283,42.6135234 49.6111652,50.5424861 49.6111652,60.3318757" id="Fill-14" fill="#4F0009"></path>
                    <path d="M38.9805967,55.0154841 C38.9805967,57.9500862 36.5996931,60.3309898 33.665091,60.3309898 C30.7282741,60.3309898 28.3495853,57.9500862 28.3495853,55.0154841 C28.3495853,52.0786672 30.7282741,49.6999784 33.665091,49.6999784 C36.5996931,49.6999784 38.9805967,52.0786672 38.9805967,55.0154841" id="Fill-16" fill="#ED8A19"></path>
                    <mask id="mask-2" fill="white">
                        <use xlink:href="#path-1"></use>
                    </mask>
                    <g id="Clip-19"></g>
                    <polygon id="Fill-18" fill="#93868B" mask="url(#mask-2)" points="70.8734095 104.626871 99.2227733 104.626871 99.2227733 99.311365 70.8734095 99.311365"></polygon>
                    <polygon id="Fill-20" fill="#4B4B4B" mask="url(#mask-2)" points="77.9607504 99.311365 92.1332175 99.311365 92.1332175 92.2240241 77.9607504 92.2240241"></polygon>
                    <polygon id="Fill-21" fill="#38454F" mask="url(#mask-2)" points="81.5044209 62.1028251 88.5917619 62.1028251 88.5917619 55.0154841 81.5044209 55.0154841"></polygon>
                    <path d="M7.08778391,60.3318757 C7.09664308,57.3108967 7.62154927,54.3164951 8.63813974,51.4726996 C0.813272374,55.5146987 -2.25200259,65.1335492 1.78999655,72.9584166 C3.02806642,75.3503942 4.84862713,77.3924343 7.08778391,78.8918499 L7.08778391,60.3318757 Z" id="Fill-22" fill="#93868B" mask="url(#mask-2)"></path>
                </g>
                <path d="M67.3306249,104.735091 L102.76733,104.735091" id="Stroke-24" stroke="#38454F" stroke-width="1.6" stroke-linecap="round"></path>
                <g id="Group-30" transform="translate(59.799439, 17.825687)" fill="#4B4B4B">
                    <path d="M34.1087142,4.07522105 C34.1087142,9.35307526 32.2217097,14.4581755 28.7932085,18.4713823 L28.7932085,28.6151391 L34.6845607,22.7237869 C38.874951,18.5577593 41.2292771,12.8878866 41.2182031,6.97660125 L41.2182031,0.0885917619 L34.1087142,0.0885917619 L34.1087142,4.07522105 Z" id="Fill-26"></path>
                    <polygon id="Fill-28" points="0.443401768 47.0648164 0.443401768 57.0978335 21.7054246 35.8358106 21.7054246 25.8027936"></polygon>
                </g>
            </g>
        </g>
    </g>
</svg>