<?xml version="1.0" encoding="UTF-8"?>
<svg width="115px" height="115px" viewBox="0 0 115 115" version="1.1" xmlns="http://www.w3.org/2000/svg" xmlns:xlink="http://www.w3.org/1999/xlink">
    <!-- Generator: Sketch 45.2 (43514) - http://www.bohemiancoding.com/sketch -->
    <title>feather</title>
    <desc>Created with Sketch.</desc>
    <defs>
        <filter x="-6.5%" y="-4.7%" width="113.1%" height="113.1%" filterUnits="objectBoundingBox" id="filter-1">
            <feOffset dx="0" dy="2" in="SourceAlpha" result="shadowOffsetOuter1"></feOffset>
            <feGaussianBlur stdDeviation="2" in="shadowOffsetOuter1" result="shadowBlurOuter1"></feGaussianBlur>
            <feColorMatrix values="0 0 0 0 0   0 0 0 0 0   0 0 0 0 0  0 0 0 0.5 0" type="matrix" in="shadowBlurOuter1" result="shadowMatrixOuter1"></feColorMatrix>
            <feMerge>
                <feMergeNode in="shadowMatrixOuter1"></feMergeNode>
                <feMergeNode in="SourceGraphic"></feMergeNode>
            </feMerge>
        </filter>
    </defs>
    <g id="Page-1" stroke="none" stroke-width="1" fill="none" fill-rule="evenodd">
        <g id="Design-proposal-Copy" transform="translate(-753.000000, -767.000000)" fill-rule="nonzero" fill="#5C0002">
            <g id="Group" transform="translate(698.000000, 769.000000)">
                <g id="feather" filter="url(#filter-1)" transform="translate(59.000000, 0.000000)">
                    <path d="M100.253834,6.47202414 C93.0036621,-0.778148276 81.9697483,-1.93522414 73.509,2.99636897 L69.9447931,35.4937448 C69.8422207,36.4294414 69.4234448,37.3024138 68.757831,37.9680276 L60.6287828,46.0970759 C60.4398724,46.2859862 60.1528172,46.3346897 59.9118828,46.2195724 C59.6713172,46.1040862 59.5296345,45.849131 59.5587828,45.5838448 L63.2137552,12.2581414 L24.1299759,51.3419207 C22.5533862,52.9185103 21.5811621,54.9994759 21.3833966,57.2202793 L19.4002069,79.4987862 L1.62123448,97.2781276 C-0.540165517,99.4391586 -0.540165517,102.943593 1.62123448,105.104993 C2.70193448,106.185693 4.1183931,106.725859 5.53448276,106.725859 C6.95094138,106.725859 8.3674,106.185324 9.44773103,105.104993 L27.2270724,87.3256517 L49.5052103,85.3424621 C51.7263828,85.1446966 53.8069793,84.1724724 55.383569,82.5958828 L72.4888103,65.4906414 L39.1631069,69.1456138 C38.8978207,69.1747621 38.6428655,69.0330793 38.5273793,68.7925138 C38.4118931,68.5519483 38.4609655,68.2645241 38.6498759,68.0756138 L46.7789241,59.9465655 C47.4445379,59.2809517 48.3175103,58.8621759 49.2532069,58.7596034 L82.9113483,55.0681034 L100.253466,37.7259862 C108.884307,29.0955138 108.884307,15.1024966 100.253834,6.47202414 Z" id="Shape"></path>
                </g>
            </g>
        </g>
    </g>
</svg>