<?xml version="1.0" encoding="UTF-8"?>
<svg width="106px" height="99px" viewBox="0 0 106 99" version="1.1" xmlns="http://www.w3.org/2000/svg" xmlns:xlink="http://www.w3.org/1999/xlink">
    <!-- Generator: Sketch 45.2 (43514) - http://www.bohemiancoding.com/sketch -->
    <title>Page 1</title>
    <desc>Created with Sketch.</desc>
    <defs></defs>
    <g id="Page-1" stroke="none" stroke-width="1" fill="none" fill-rule="evenodd">
        <g id="Design-proposal-Copy" transform="translate(-459.000000, -781.000000)">
            <g id="Page-1" transform="translate(459.000000, 781.000000)">
                <polygon id="Fill-1" fill="#4F0009" points="65.2302 59.8399 65.2302 78.4399 41.6502 78.4399 41.6502 98.4399 106.0002 98.4399 106.0002 78.4399 85.5902 78.4399 85.5902 59.8399"></polygon>
                <polygon id="Fill-2" fill="#A64141" points="0 38.7601 0 78.4401 0 97.5601 19.86 77.7001 19.86 38.7601"></polygon>
                <polygon id="Fill-3" fill="#922918" points="0 97.5598 0 98.4398 19.86 98.4398 41.65 98.4398 41.65 78.4398 19.86 78.4398 19.86 77.7008"></polygon>
                <polygon id="Fill-4" fill="#922918" points="65.2302 -0.0002 65.2302 38.3198 74.6402 38.3198 85.2402 27.9998 85.2402 -0.0002"></polygon>
                <polygon id="Fill-5" fill="#4F0009" points="74.6396 38.3198 85.2406 38.3198 85.2406 27.9998"></polygon>
                <polygon id="Fill-6" fill="#4F0009" points="94.4505 19.1599 85.2395 27.9999 85.2395 55.8209 106.0005 55.8209 106.0005 19.1599"></polygon>
                <polygon id="Fill-7" fill="#922918" points="94.4502 19.1602 85.2402 19.1602 85.2402 28.0002"></polygon>
            </g>
        </g>
    </g>
</svg>