<?xml version="1.0" encoding="UTF-8"?>
<svg width="70px" height="11px" viewBox="0 0 70 11" version="1.1" xmlns="http://www.w3.org/2000/svg" xmlns:xlink="http://www.w3.org/1999/xlink">
    <!-- Generator: Sketch 45.2 (43514) - http://www.bohemiancoding.com/sketch -->
    <title>Page 1</title>
    <desc>Created with Sketch.</desc>
    <defs>
        <polygon id="path-1" points="0 10.1818182 70 10.1818182 70 0.126 0 0.126"></polygon>
    </defs>
    <g id="Page-1" stroke="none" stroke-width="1" fill="none" fill-rule="evenodd">
        <g id="Design-proposal-Copy" transform="translate(-136.000000, -163.000000)">
            <g id="Page-1" transform="translate(136.000000, 163.000000)">
                <polygon id="Fill-1" fill="#FFFFFF" points="7.66996364 0.636236364 5.31838788 5.31181212 2.91208485 0.636236364 8.48484848e-05 0.636236364 8.48484848e-05 10.2610242 2.91208485 10.2610242 2.91208485 5.12047879 4.70323636 8.48387273 5.89281212 8.48387273 7.66996364 5.12047879 7.66996364 10.2610242 10.5819636 10.2610242 10.5819636 0.636236364"></polygon>
                <g id="Group-16" transform="translate(0.000000, 0.298073)">
                    <path d="M17.0898424,7.63886667 C17.4500242,7.63886667 17.7563273,7.56250303 18.0091758,7.40977576 C18.2624485,7.25747273 18.4694788,7.06147273 18.6315394,6.82177576 C18.7931758,6.58292727 18.9115394,6.31480606 18.9870545,6.01868485 C19.0617212,5.72256364 19.0994788,5.4332303 19.0994788,5.15068485 C19.0994788,4.78159394 19.0528121,4.44304848 18.9594788,4.13547273 C18.8661455,3.82789697 18.7316606,3.56147273 18.5560242,3.33535152 C18.3803879,3.11007879 18.1686909,2.93104848 17.9205091,2.79910909 C17.671903,2.66674545 17.395297,2.59377576 17.0898424,2.5802 C16.7254182,2.58953333 16.415297,2.67141212 16.1603273,2.82626061 C15.9049333,2.98110909 15.6962061,3.18092727 15.5345697,3.42444242 C15.3729333,3.66838182 15.2545697,3.94201818 15.1790545,4.24492727 C15.1039636,4.54783636 15.0662061,4.84989697 15.0662061,5.15068485 C15.0662061,5.5062 15.1128727,5.83541212 15.2066303,6.13832121 C15.2999636,6.44165455 15.4344485,6.70341212 15.6100848,6.92444242 C15.785297,7.14547273 15.9982667,7.31983636 16.2489939,7.44753333 C16.4997212,7.5752303 16.7801455,7.63886667 17.0898424,7.63886667 Z M11.9357212,5.16426061 C11.9357212,3.77444242 12.3777818,2.60310909 13.261903,1.65068485 C14.2049939,0.6342 15.4811152,0.126381818 17.0898424,0.126381818 C17.8738424,0.126381818 18.5823273,0.252806061 19.2157212,0.505654545 C19.8491152,0.75850303 20.3891758,1.10807879 20.835903,1.55480606 C21.2826303,2.00153333 21.6266909,2.53353333 21.8680848,3.1512303 C22.109903,3.76850303 22.2303879,4.43965455 22.2303879,5.16426061 C22.2303879,5.60165455 22.1803273,6.03013939 22.0802061,6.44929091 C21.9796606,6.86886667 21.8307515,7.26426061 21.6322061,7.63547273 C21.4340848,8.00710909 21.189297,8.34862424 20.8974182,8.66086667 C20.6059636,8.97310909 20.2695394,9.24165455 19.8894182,9.46777576 C19.5084485,9.69304848 19.0846303,9.86868485 18.6179636,9.99383636 C18.1504485,10.1189879 17.6413576,10.1817758 17.0898424,10.1817758 C16.5247515,10.1817758 16.0063273,10.1181394 15.5345697,9.99044242 C15.0632364,9.86274545 14.6356,9.68498788 14.2529333,9.4571697 C13.8702667,9.22935152 13.5338424,8.95826061 13.2449333,8.64389697 C12.9551758,8.32910909 12.7137818,7.98632121 12.5203273,7.61468485 C12.3260242,7.24347273 12.1805091,6.85062424 12.0825091,6.43571515 C11.9845091,6.0212303 11.9357212,5.59741212 11.9357212,5.16426061 Z" id="Fill-2" fill="#FFFFFF"></path>
                    <polygon id="Fill-4" fill="#FFFFFF" points="24.8007879 2.37516364 22.8047273 2.37516364 22.8047273 0.337951515 30.0643636 0.337951515 30.0643636 2.37516364 28.068303 2.37516364 28.068303 9.96316364 24.8007879 9.96316364"></polygon>
                    <path d="M35.7929515,7.63886667 C36.1531333,7.63886667 36.4594364,7.56250303 36.7122848,7.40977576 C36.9655576,7.25747273 37.1725879,7.06147273 37.3346485,6.82177576 C37.4962848,6.58292727 37.6146485,6.31480606 37.6901636,6.01868485 C37.7648303,5.72256364 37.8025879,5.4332303 37.8025879,5.15068485 C37.8025879,4.78159394 37.7559212,4.44304848 37.6625879,4.13547273 C37.5692545,3.82789697 37.4347697,3.56147273 37.2591333,3.33535152 C37.083497,3.11007879 36.8718,2.93104848 36.6236182,2.79910909 C36.3750121,2.66674545 36.0984061,2.59377576 35.7929515,2.5802 C35.4285273,2.58953333 35.1184061,2.67141212 34.8634364,2.82626061 C34.6080424,2.98110909 34.3993152,3.18092727 34.2376788,3.42444242 C34.0760424,3.66838182 33.9576788,3.94201818 33.8821636,4.24492727 C33.8070727,4.54783636 33.7693152,4.84989697 33.7693152,5.15068485 C33.7693152,5.5062 33.8159818,5.83541212 33.9097394,6.13832121 C34.0030727,6.44165455 34.1375576,6.70341212 34.3131939,6.92444242 C34.4884061,7.14547273 34.7013758,7.31983636 34.952103,7.44753333 C35.2028303,7.5752303 35.4832545,7.63886667 35.7929515,7.63886667 M30.6388303,5.16426061 C30.6388303,3.77444242 31.0808909,2.60310909 31.9650121,1.65068485 C32.908103,0.6342 34.1842242,0.126381818 35.7929515,0.126381818 C36.5769515,0.126381818 37.2854364,0.252806061 37.9188303,0.505654545 C38.5522242,0.75850303 39.0922848,1.10807879 39.5390121,1.55480606 C39.9857394,2.00153333 40.3293758,2.53353333 40.5711939,3.1512303 C40.8125879,3.76850303 40.933497,4.43965455 40.933497,5.16426061 C40.933497,5.60165455 40.8834364,6.03013939 40.7833152,6.44929091 C40.6827697,6.86886667 40.5338606,7.26426061 40.3353152,7.63547273 C40.1371939,8.00710909 39.8919818,8.34862424 39.6009515,8.66086667 C39.3086485,8.97310909 38.9726485,9.24165455 38.5925273,9.46777576 C38.2115576,9.69304848 37.7877394,9.86868485 37.3210727,9.99383636 C36.8535576,10.1189879 36.3444667,10.1817758 35.7929515,10.1817758 C35.2278606,10.1817758 34.7094364,10.1181394 34.2376788,9.99044242 C33.7663455,9.86274545 33.3387091,9.68498788 32.9560424,9.4571697 C32.5733758,9.22935152 32.2369515,8.95826061 31.9480424,8.64389697 C31.6582848,8.32910909 31.4168909,7.98632121 31.2234364,7.61468485 C31.0291333,7.24347273 30.8836182,6.85062424 30.7856182,6.43571515 C30.6876182,6.0212303 30.6388303,5.59741212 30.6388303,5.16426061" id="Fill-6" fill="#FFFFFF"></path>
                    <polygon id="Fill-8" fill="#FFFFFF" points="46.395703 9.96307879 44.4403697 9.96307879 44.4403697 2.1222303 41.4940061 2.1222303 41.4940061 0.160533333 49.3348545 0.160533333 49.3348545 2.1222303 46.395703 2.1222303"></polygon>
                    <path d="M55.8491818,6.04609091 L55.8491818,4.0839697 C55.8491818,3.81542424 55.7982727,3.56130303 55.6956061,3.3220303 C55.5929394,3.08275758 55.4529394,2.8740303 55.2747576,2.69627273 C55.0978485,2.51893939 54.888697,2.37851515 54.6498485,2.27627273 C54.4101515,2.17360606 54.1564545,2.12227273 53.8874848,2.12227273 C53.6185152,2.12227273 53.3648182,2.17360606 53.1251212,2.27627273 C52.8862727,2.37851515 52.6771212,2.51893939 52.4997879,2.69627273 C52.3220303,2.8740303 52.1816061,3.08275758 52.0793636,3.3220303 C51.976697,3.56130303 51.9257879,3.81542424 51.9257879,4.0839697 L51.9257879,6.04609091 L55.8491818,6.04609091 Z M57.811303,9.96312121 L55.8491818,9.96312121 L55.8491818,8.001 L51.9257879,8.001 L51.9257879,9.96312121 L49.9704545,9.96312121 L49.9704545,4.0839697 C49.9704545,3.54178788 50.0731212,3.03269697 50.2780303,2.55627273 C50.4833636,2.08027273 50.7625152,1.66409091 51.1154848,1.30857576 C51.4688788,0.953484848 51.8833636,0.673060606 52.3593636,0.468151515 C52.8357879,0.262818182 53.345303,0.160151515 53.8874848,0.160151515 C54.4296667,0.160151515 54.9387576,0.262818182 55.4156061,0.468151515 C55.8916061,0.673060606 56.3073636,0.953484848 56.6628788,1.30857576 C57.0183939,1.66409091 57.2983939,2.08027273 57.5037273,2.55627273 C57.7086364,3.03269697 57.811303,3.54178788 57.811303,4.0839697 L57.811303,9.96312121 Z" id="Fill-10" fill="#FFFFFF"></path>
                    <polygon id="Fill-12" fill="#FFFFFF" points="67.128897 9.96307879 64.7501697 9.96307879 62.8631394 6.7982303 60.9693212 9.96307879 58.6041697 9.96307879 61.6120485 5.06180606 58.6041697 0.160533333 60.9693212 0.160533333 62.8631394 3.32538182 64.7501697 0.160533333 67.128897 0.160533333 64.1210182 5.06180606"></polygon>
                    <mask id="mask-2" fill="white">
                        <use xlink:href="#path-1"></use>
                    </mask>
                    <g id="Clip-15"></g>
                    <polygon id="Fill-14" fill="#FFFFFF" mask="url(#mask-2)" points="68.0378788 9.96290909 70 9.96290909 70 0.160363636 68.0378788 0.160363636"></polygon>
                </g>
            </g>
        </g>
    </g>
</svg>