<?xml version="1.0" encoding="UTF-8"?>
<svg width="62px" height="39px" viewBox="0 0 62 39" version="1.1" xmlns="http://www.w3.org/2000/svg" xmlns:xlink="http://www.w3.org/1999/xlink">
    <!-- Generator: Sketch 45.2 (43514) - http://www.bohemiancoding.com/sketch -->
    <title>Page 1</title>
    <desc>Created with Sketch.</desc>
    <defs>
        <polygon id="path-1" points="10.6768585 10.7242167 0.0543074332 10.7242167 0.0543074332 0.10157978 10.6768585 0.10157978 10.6768585 10.7242167"></polygon>
        <polygon id="path-3" points="1.33167121e-15 36.7471075 1.33167121e-15 0.0166654327 18.8382448 0.0166654327 18.8382448 36.7471075"></polygon>
        <polygon id="path-5" points="10.740496 10.7242167 0.117944935 10.7242167 0.117944935 0.101536883 10.740496 0.101536883"></polygon>
    </defs>
    <g id="Page-1" stroke="none" stroke-width="1" fill="none" fill-rule="evenodd">
        <g id="Design-proposal-Copy" transform="translate(-64.000000, -148.000000)">
            <g id="Page-1" transform="translate(64.000000, 148.000000)">
                <g id="Group-3" transform="translate(10.509732, 27.358120)">
                    <mask id="mask-2" fill="white">
                        <use xlink:href="#path-1"></use>
                    </mask>
                    <g id="Clip-2"></g>
                    <path d="M10.6768585,5.41285532 C10.6768585,8.34614306 8.29887072,10.7243454 5.36558298,10.7243454 C2.43229524,10.7243454 0.0543074332,8.34614306 0.0543074332,5.41285532 C0.0543074332,2.47956758 2.43229524,0.10157978 5.36558298,0.10157978 C8.29887072,0.10157978 10.6768585,2.47956758 10.6768585,5.41285532" id="Fill-1" fill="#FEFEFE" mask="url(#mask-2)"></path>
                </g>
                <path d="M18.015204,32.7709755 C18.015204,33.9527842 17.0571025,34.9108857 15.8752939,34.9108857 C14.6934852,34.9108857 13.7353837,33.9527842 13.7353837,32.7709755 C13.7353837,31.5891668 14.6934852,30.6310653 15.8752939,30.6310653 C17.0571025,30.6310653 18.015204,31.5891668 18.015204,32.7709755" id="Fill-4" fill="#1E1210"></path>
                <path d="M12.7185349,7.14239264 C12.8341419,6.85648503 13.0134508,6.47127116 13.2665424,6.07340272 C13.0578491,6.3584524 12.8729636,6.70527357 12.7185349,7.14239264" id="Fill-6" fill="#FEFEFE"></path>
                <path d="M12.5508725,7.61430107 L12.5787194,7.61408659 C12.6341481,7.44593087 12.6940853,7.28892834 12.7582659,7.14243554 C12.6158487,7.42748522 12.5508725,7.61430107 12.5508725,7.61430107" id="Fill-8" fill="#FEFEFE"></path>
                <path d="M51.1440252,19.1951896 C49.7445149,18.7203213 49.0474408,15.7235462 48.7653939,14.425487 C48.4831325,13.1269989 48.5618483,9.94898449 48.4050603,7.82751995 C48.2484867,5.70584092 46.266008,4.76597057 44.541554,4.22804387 C42.8173144,3.68990267 38.9898415,4.03801075 37.2340727,4.22782938 C35.478304,4.4178625 32.2303677,4.63427719 29.7221879,4.71728263 C27.8844862,4.7779817 22.6399152,4.32949496 18.995183,4.20101884 C17.749029,4.15704955 16.6924792,4.15082951 16.0211432,4.21496032 C15.9761015,4.21925001 15.9282715,4.22289624 15.886876,4.22804387 C14.6308558,4.37775393 13.7900772,5.25113414 13.2665209,6.07346707 C13.0134294,6.47112102 12.8341205,6.85633489 12.7185134,7.14245699 C12.6666082,7.28894979 12.6183493,7.44595232 12.573522,7.61410804 L18.995183,7.55684072 L36.0387515,7.40498581 L36.0387515,9.96442736 C36.0387515,12.5238689 37.0770702,19.6700579 37.0770702,19.6700579 L52.5435355,19.6700579 L51.1440252,19.1951896 Z" id="Fill-10" fill="#FEFEFE"></path>
                <path d="M29.6925462,0.000107242167 C25.8262516,0.000107242167 22.2196975,0.0944803488 19.1727331,0.257702926 L19.5191253,3.12364259 C22.4916637,3.27549749 25.9718865,3.3630071 29.6925462,3.3630071 C34.1147842,3.3630071 38.1974935,3.23946413 41.4911149,3.03098535 L41.8040475,0.352290517 C38.4576629,0.131586138 34.2559149,0.000107242167 29.6925462,0.000107242167" id="Fill-12" fill="#FEFEFE"></path>
                <path d="M34.4177004,22.1573469 C34.5037086,22.0805615 34.5912182,22.0123555 34.6785133,21.9428626 L22.9843985,22.0704808 L22.9843985,30.5756425 L33.7146208,30.5756425 C33.7146208,30.5756425 32.410127,23.9508649 34.4177004,22.1573469" id="Fill-14" fill="#FEFEFE"></path>
                <path d="M40.9421851,20.5304833 C40.9421851,20.5304833 38.2930891,20.2855422 35.9455581,21.9711745 C35.8404608,22.046673 35.735149,22.1206701 35.631553,22.2041045 C33.2134567,24.1507643 34.7847689,31.3411371 34.7847689,31.3411371 L22.003004,31.3411371 C22.0737838,31.629833 22.1316946,31.9234621 22.1621514,32.2256705 C22.1838143,32.4412273 22.1953965,32.6597868 22.1953965,32.8811346 C22.1953965,33.266134 22.1552879,33.6410526 22.0907281,34.0076063 C26.1442675,34.053077 32.470054,34.1124892 37.7592376,34.1322217 C37.6318339,33.6258242 37.5567644,33.0986217 37.5567644,32.5527591 C37.5567644,28.9820239 40.451445,26.0871289 44.0221801,26.0871289 C46.2227894,26.0871289 48.1636581,27.1887204 49.3313108,28.8681328 C49.3244473,28.4799161 49.3141521,28.1197969 49.3141521,27.8096526 C49.3141521,25.8198814 49.6693382,23.545704 50.3799248,22.0535365 C51.0907258,20.5611545 53.026018,20.5176142 53.026018,20.5176142 L40.9421851,20.5304833 Z" id="Fill-16" fill="#FEFEFE"></path>
                <path d="M19.4913496,7.69985887 L19.4913496,20.3469276 L9.84856292,20.3469276 L11.4782149,21.4618171 C12.8213158,22.3808825 12.6516587,23.9436154 12.6338565,27.2044207 C13.5533508,26.7018839 14.6079703,26.4155473 15.7297233,26.4155473 C17.4325145,26.4155473 18.9768017,27.0787329 20.1313708,28.1545863 C20.9138097,28.8836185 21.5154382,29.801397 21.8609725,30.8392867 L21.8609725,22.1097743 L21.8609725,7.69985887 L19.4913496,7.69985887 Z" id="Fill-18" fill="#FEFEFE"></path>
                <path d="M57.4733935,17.9758462 C56.5819966,17.8053311 55.8154296,17.4786715 55.1728346,16.9954383 C54.5465403,16.5265755 54.1008419,15.9296656 53.8357392,15.2051376 C53.5708511,14.480395 53.4382998,13.4787532 53.4382998,12.1999976 L53.4382998,10.3350563 L53.4382998,8.44888106 C53.4382998,5.77769317 52.3663071,3.76003905 50.2223217,2.39591869 C48.0783363,1.03179833 45.4729951,0.349738154 42.4052257,0.349738154 L42.2124042,2.94993173 C44.6538794,2.94993173 46.5769459,3.4226552 47.9820328,4.36745868 C49.3875486,5.31247666 50.0897703,6.67295078 50.0897703,8.44888106 L50.0897703,10.3243321 L50.0897703,12.796693 C50.0897703,14.8145616 50.587803,16.3772944 51.5834392,17.485535 C52.5795045,18.5937755 53.8561152,19.3116546 55.4137005,19.6380998 L55.4137005,19.7022306 C53.7754691,20.0717871 52.4789113,20.8141174 51.5231691,21.9294359 C50.5678559,23.0449689 50.0897703,24.5828216 50.0897703,26.5436373 L50.0897703,28.8774414 L50.0897703,29.6570919 C50.6135411,30.6100458 50.9118888,31.7041304 50.9118888,32.8681369 C50.9118888,34.7661087 50.1187257,36.4774792 48.8476916,37.6933909 C49.3232033,37.472901 49.7849881,37.2318206 50.2223217,36.9551359 C52.3663071,35.5980935 53.4382998,33.5697151 53.4382998,30.8702153 L53.4382998,28.9947643 L53.4382998,27.1405472 C53.4382998,25.8478502 53.5749263,24.8279772 53.8477503,24.0820007 C54.1212179,23.3360241 54.5549052,22.742975 55.1488123,22.3024241 C55.7592347,21.8623023 56.5459633,21.5388599 57.5094269,21.332526 C58.473105,21.1268355 59.6536268,20.9597522 61.0507777,20.8317051 L61.0507777,18.5086253 C59.5571088,18.3241687 58.3645759,18.1463612 57.4733935,17.9758462" id="Fill-20" fill="#FEFEFE"></path>
                <g id="Group-24" transform="translate(0.000000, 0.333094)">
                    <mask id="mask-4" fill="white">
                        <use xlink:href="#path-3"></use>
                    </mask>
                    <g id="Clip-23"></g>
                    <path d="M10.9608787,28.4195388 L10.9608787,26.2105646 C10.9608787,24.2497489 10.4827931,22.7118962 9.52747988,21.5963632 C8.57173769,20.4810446 7.27517989,19.7387144 5.63694855,19.3691578 L5.63694855,19.305027 C7.19453378,18.9783674 8.47135902,18.2607028 9.46742426,17.1524623 C10.4628461,16.0442217 10.9608787,14.4814889 10.9608787,12.4636203 L10.9608787,9.99125935 L10.9608787,8.11559385 C10.9608787,6.33987806 11.6631004,4.97940393 13.0688307,4.03438596 C14.4739176,3.08958247 16.3967696,2.616859 18.8382448,2.616859 L18.6456378,0.0166654327 C15.5778684,0.0166654327 12.9723128,0.698725612 10.8283274,2.06284597 C8.68434196,3.42696633 7.61234926,5.44462045 7.61234926,8.11559385 L7.61234926,10.0019836 L7.61234926,11.8669248 C7.61234926,13.1456804 7.48001243,14.1473223 7.21490979,14.8720648 C6.95002164,15.5965929 6.5043232,16.1935028 5.87802895,16.6623656 C5.23543388,17.1455988 4.46865239,17.4720439 3.57746999,17.6427735 C2.6860731,17.8132885 1.49354021,17.991096 -0.0001286906,18.1755525 L-0.0001286906,20.4986323 C1.39723674,20.6266795 2.57775851,20.7937628 3.54122214,20.9994533 C4.50468576,21.2057872 5.29141429,21.5292296 5.90205119,21.9693514 C6.49595831,22.4099022 6.92964563,23.0029514 7.20289867,23.7489279 C7.47572274,24.4949044 7.61234926,25.5147774 7.61234926,26.80726 L7.61234926,28.6614771 L7.61234926,30.5371426 C7.61234926,33.2364279 8.68434196,35.2650208 10.8283274,36.6220631 C10.8984637,36.6664614 10.9733188,36.7042106 11.0445276,36.7471075 C10.0375236,35.6315745 9.41916529,34.1584961 9.41916529,32.537209 C9.41916529,30.9609636 10.0029916,29.5234896 10.9608787,28.4195388" id="Fill-22" fill="#FEFEFE" mask="url(#mask-4)"></path>
                </g>
                <g id="Group-27" transform="translate(38.821664, 27.358120)">
                    <mask id="mask-6" fill="white">
                        <use xlink:href="#path-5"></use>
                    </mask>
                    <g id="Clip-26"></g>
                    <path d="M5.42922048,0.101536883 C2.49593274,0.101536883 0.117944935,2.47952469 0.117944935,5.41281243 C0.117944935,8.34631465 2.49593274,10.7243025 5.42922048,10.7243025 C8.36250822,10.7243025 10.740496,8.34631465 10.740496,5.41281243 C10.740496,2.47952469 8.36250822,0.101536883 5.42922048,0.101536883" id="Fill-25" fill="#FEFEFE" mask="url(#mask-6)"></path>
                </g>
                <path d="M46.3907092,32.7709755 C46.3907092,33.9527842 45.4326077,34.9108857 44.250799,34.9108857 C43.0689903,34.9108857 42.1108888,33.9527842 42.1108888,32.7709755 C42.1108888,31.5891668 43.0689903,30.6310653 44.250799,30.6310653 C45.4326077,30.6310653 46.3907092,31.5891668 46.3907092,32.7709755" id="Fill-28" fill="#1E1210"></path>
            </g>
        </g>
    </g>
</svg>