<?xml version="1.0" encoding="UTF-8"?>
<svg width="217px" height="165px" viewBox="0 0 217 165" version="1.1" xmlns="http://www.w3.org/2000/svg" xmlns:xlink="http://www.w3.org/1999/xlink">
    <!-- Generator: Sketch 45.2 (43514) - http://www.bohemiancoding.com/sketch -->
    <title>Page 1</title>
    <desc>Created with Sketch.</desc>
    <defs>
        <polygon id="path-1" points="67.5432898 0.476343014 67.5432898 133.179302 0.599983336 133.179302 0.599983336 0.476343014"></polygon>
    </defs>
    <g id="Page-1" stroke="none" stroke-width="1" fill="none" fill-rule="evenodd">
        <g id="Design-proposal-Copy" transform="translate(-403.000000, -276.000000)">
            <g id="Page-1" transform="translate(403.000000, 276.000000)">
                <path d="M75.2883422,116.45409 C75.2883422,126.878143 66.8378082,135.328677 56.4137552,135.328677 C45.9897022,135.328677 37.5399306,126.878143 37.5399306,116.45409 C37.5399306,106.030037 45.9897022,97.579503 56.4137552,97.579503 C66.8378082,97.579503 75.2883422,106.030037 75.2883422,116.45409 Z" id="Fill-1" fill="#1E1210"></path>
                <path d="M64.0180924,116.45409 C64.0180924,120.65344 60.613791,124.058503 56.413679,124.058503 C52.2143292,124.058503 48.8100279,120.65344 48.8100279,116.45409 C48.8100279,112.25474 52.2143292,108.849677 56.413679,108.849677 C60.613791,108.849677 64.0180924,112.25474 64.0180924,116.45409" id="Fill-3" fill="#5D5D5D"></path>
                <path d="M45.1961783,25.3809492 C45.6070423,24.3648423 46.2443007,22.9958039 47.1437802,21.5825539 C46.4020907,22.5948495 45.7457756,23.8274414 45.1961783,25.3809492" id="Fill-5" fill="#C3C4CA"></path>
                <path d="M43.3947038,39.048998 C42.9632585,55.5513983 40.560581,65.8832165 33.5141498,68.0130011 L26.4677187,70.1420234 L67.5007551,70.1420234 L67.5007551,28.4320905 L44.6806546,28.6279941 C43.9671691,31.2098053 43.5120935,34.564559 43.3947038,39.048998" id="Fill-7" fill="#C3C4CA"></path>
                <path d="M44.600235,27.0577163 L44.6866015,27.056954 C44.8585118,26.4593337 45.0452278,25.9021138 45.2434593,25.3807206 C44.8017567,26.3945407 44.600235,27.0577163 44.600235,27.0577163" id="Fill-9" fill="#000000"></path>
                <path d="M181.743879,68.2114202 C176.770824,66.5237527 174.294206,55.8748298 173.291058,51.261567 C172.288672,46.6483042 172.568425,35.3545002 172.011205,27.8148799 C171.453985,20.2760218 164.409079,16.9357512 158.281946,15.0247383 C152.154051,13.1129632 138.552854,14.3486041 132.31443,15.0239761 C126.075243,15.699348 114.532939,16.4684792 105.619707,16.7627157 C99.0893327,16.9784384 80.4525743,15.3852924 67.5000691,14.9286922 C63.0728004,14.7724267 59.3186167,14.7503209 56.9327092,14.9782398 C56.7726323,14.9934852 56.6026459,15.0064438 56.4547654,15.0247383 C51.9916699,15.5560411 49.0043307,18.6600077 47.1436277,21.5825539 C46.2441482,22.9958039 45.6068898,24.3648423 45.1960259,25.3809492 C45.0123186,25.9023425 44.8400454,26.4595624 44.6807308,27.0571827 L67.5000691,26.8536564 L128.066294,26.3139687 L128.066294,35.4093837 C128.066294,44.5040365 131.755685,69.8990877 131.755685,69.8990877 L186.717696,69.8990877 L181.743879,68.2114202 Z" id="Fill-11" fill="#000000"></path>
                <path d="M105.514894,7.62270786e-05 C91.7757257,7.62270786e-05 78.959667,0.335475373 68.1316104,0.915563442 L69.3626778,11.1002634 C79.925464,11.6399511 92.2925453,11.9501953 105.514894,11.9501953 C121.229107,11.9501953 135.737406,11.5118896 147.442074,10.7702002 L148.553465,1.25172486 C136.662041,0.467348219 121.730681,7.62270786e-05 105.514894,7.62270786e-05" id="Fill-13" fill="#000000"></path>
                <path d="M122.305738,78.7376937 C122.611408,78.4648008 122.922415,78.2223986 123.232659,77.9754229 L81.6774672,78.428974 L81.6774672,108.652248 L119.807776,108.652248 C119.807776,108.652248 115.171646,85.1110397 122.305738,78.7376937" id="Fill-15" fill="#4F0003"></path>
                <path d="M145.490966,72.9566321 C145.490966,72.9566321 136.076922,72.0861188 127.735393,78.0760427 C127.36188,78.344362 126.987605,78.6073454 126.619428,78.9038687 C118.02635,85.8214761 123.609983,111.373555 123.609983,111.373555 L78.1893161,111.373555 C78.4408655,112.398809 78.6474408,113.441596 78.754921,114.516398 C78.8319104,115.28248 78.8723107,116.059234 78.8723107,116.845135 C78.8723107,118.213411 78.7305284,119.546623 78.5018471,120.849343 C92.9064782,121.010182 115.384319,121.221331 134.180392,121.29146 C133.727603,119.491739 133.460809,117.61884 133.460809,115.678098 C133.460809,102.989339 143.746891,92.7024945 156.436412,92.7024945 C164.255786,92.7024945 171.153574,96.6175173 175.302614,102.584573 C175.278222,101.206387 175.24087,99.9257725 175.24087,98.8235289 C175.24087,91.7527051 176.503953,83.6718725 179.029356,78.3687546 C181.554759,73.0656368 188.431966,72.9108958 188.431966,72.9108958 L145.490966,72.9566321 Z" id="Fill-17" fill="#6C0002"></path>
                <path d="M69.2638875,27.3618623 L69.2638875,72.3045856 L34.9982911,72.3045856 L40.7885,76.2661069 C45.5610774,79.531675 44.9581212,85.0855799 44.895615,96.6728581 C48.1627076,94.8868577 51.910793,93.8699884 55.8967069,93.8699884 C61.9476125,93.8699884 67.4351998,96.2261674 71.5385035,100.048955 C74.3192673,102.639914 76.4574369,105.901671 77.6846928,109.589537 L77.6846928,78.5689269 L77.6846928,27.3618623 L69.2638875,27.3618623 Z" id="Fill-19" fill="#6C0002"></path>
                <g id="Group-23" transform="translate(149.405074, 0.766844)">
                    <mask id="mask-2" fill="white">
                        <use xlink:href="#path-1"></use>
                    </mask>
                    <g id="Clip-22"></g>
                    <path d="M54.8309762,63.1113713 C51.663741,62.505366 48.9393853,61.3444276 46.655622,59.6277938 C44.4297913,57.9614698 42.8457926,55.8400702 41.9043882,53.2651195 C40.9629837,50.6901688 40.4919004,47.1311265 40.4919004,42.5864681 L40.4919004,35.9592858 L40.4919004,29.2566388 C40.4919004,19.764843 36.682071,12.5941617 29.0639368,7.74688177 C21.4450403,2.89960184 12.1864993,0.476343014 1.2845025,0.476343014 L0.599983336,9.71658949 C9.27614943,9.71658949 16.1091448,11.395872 21.1020184,14.7529126 C26.0971789,18.1114777 28.5928534,22.945799 28.5928534,29.2566388 L28.5928534,35.9219346 L28.5928534,44.7071054 C28.5928534,51.8777867 30.3628462,57.4309294 33.9005449,61.3695825 C37.4397682,65.3074734 41.9768039,67.8580314 47.5116521,69.0189699 L47.5116521,69.2461265 C41.6901901,70.5595191 37.0822632,73.1977383 33.6863468,77.1607841 C30.291955,81.1253545 28.5928534,86.5900738 28.5928534,93.557991 L28.5928534,101.851497 L28.5928534,104.621589 C30.4535564,108.007596 31.5146373,111.895939 31.5146373,116.032021 C31.5146373,122.776593 28.69576,128.858751 24.1785433,133.179302 C25.8692599,132.39645 27.5096666,131.539657 29.0639368,130.556328 C36.682071,125.733441 40.4919004,118.525408 40.4919004,108.932993 L40.4919004,102.267697 L40.4919004,95.6786283 C40.4919004,91.0851846 40.9774669,87.4613493 41.9470753,84.8101715 C42.9189706,82.1589937 44.4595198,80.0520772 46.5702477,78.486373 C48.7396703,76.9221934 51.5349173,75.772689 54.9590377,75.0401468 C58.3839203,74.3091291 62.5779342,73.7145579 67.5433661,73.2602445 L67.5433661,65.0048519 C62.2356746,64.3500613 57.9982113,63.7173765 54.8309762,63.1113713" id="Fill-21" fill="#5D5D5D" mask="url(#mask-2)"></path>
                </g>
                <path d="M38.9505889,102.174548 L38.9505889,94.324683 C38.9505889,87.3567657 37.2514873,81.8928087 33.8570955,77.9274761 C30.4604169,73.9644303 25.8524899,71.3269733 20.0317902,70.0128185 L20.0317902,69.7856618 C25.5658761,68.6247234 30.1036741,66.0749276 33.6428974,62.1362745 C37.1805961,58.1983836 38.9505889,52.6444786 38.9505889,45.4737974 L38.9505889,36.6886265 L38.9505889,30.0233308 C38.9505889,23.7124909 41.4455012,18.8789319 46.4406616,15.5196045 C51.4335353,12.162564 58.2672929,10.4832814 66.943459,10.4832814 L66.2581775,1.24303497 C55.356943,1.24303497 46.098402,3.66705607 38.4795055,8.51357373 C30.860609,13.3608537 27.0515419,20.531535 27.0515419,30.0233308 L27.0515419,36.7259778 L27.0515419,43.35316 C27.0515419,47.8978185 26.5804585,51.4568608 25.6390541,54.0325737 C24.6968874,56.6075245 23.113651,58.7281618 20.8878203,60.3944857 C18.604057,62.1111195 15.8797012,63.2720579 12.7124661,63.8780632 C9.54523101,64.4840685 5.30776771,65.1167532 7.62270786e-05,65.7715439 L7.62270786e-05,74.0269365 C4.96550813,74.4812499 9.159522,75.0758211 12.5844046,75.8068388 C16.008525,76.539381 18.8030097,77.6888853 20.9731946,79.253065 C23.0839225,80.8187692 24.6244717,82.9264479 25.5956047,85.5768634 C26.5652131,88.2280412 27.0515419,91.8518765 27.0515419,96.4453203 L27.0515419,103.034389 L27.0515419,109.699685 C27.0515419,119.2921 30.860609,126.500133 38.4795055,131.32302 C38.7287681,131.48081 38.9940383,131.61497 39.2478745,131.766662 C35.6690131,127.802854 33.4721487,122.56834 33.4721487,116.807098 C33.4721487,111.20517 35.5462875,106.097955 38.9505889,102.174548" id="Fill-24" fill="#5D5D5D"></path>
                <path d="M176.123199,116.45409 C176.123199,126.878143 167.672665,135.328677 157.248612,135.328677 C146.824559,135.328677 138.374787,126.878143 138.374787,116.45409 C138.374787,106.030037 146.824559,97.579503 157.248612,97.579503 C167.672665,97.579503 176.123199,106.030037 176.123199,116.45409" id="Fill-26" fill="#1E1210"></path>
                <path d="M164.852949,116.45409 C164.852949,120.65344 161.448648,124.058503 157.248536,124.058503 C153.049186,124.058503 149.644885,120.65344 149.644885,116.45409 C149.644885,112.25474 153.049186,108.849677 157.248536,108.849677 C161.448648,108.849677 164.852949,112.25474 164.852949,116.45409" id="Fill-28" fill="#5D5D5D"></path>
                <polygon id="Fill-30" fill="#434040" points="45.1511281 146.968018 50.3833548 146.968018 54.7069547 155.369005 58.9322217 146.968018 64.1644484 146.968018 64.1644484 164.261656 58.9322217 164.261656 58.9322217 155.02522 55.7390694 161.068503 53.6016621 161.068503 50.3833548 155.02522 50.3833548 164.261656 45.1511281 164.261656"></polygon>
                <path d="M75.8578347,160.085936 C76.5050026,160.085936 77.0553621,159.948727 77.5096755,159.67431 C77.9647511,159.400655 78.3367393,159.048486 78.6279267,158.617803 C78.9183519,158.188644 79.1310254,157.706889 79.2667096,157.174824 C79.4008693,156.642759 79.4687114,156.12289 79.4687114,155.615218 C79.4687114,154.952042 79.3848616,154.34375 79.217162,153.791104 C79.0494625,153.238458 78.8078226,152.759752 78.4922425,152.353461 C78.1766624,151.948696 77.7962893,151.627017 77.3503609,151.389951 C76.9036702,151.152123 76.4066696,151.021012 75.8578347,150.996619 C75.2030441,151.013389 74.6458241,151.160508 74.1876994,151.438736 C73.7288124,151.716965 73.3537751,152.075995 73.06335,152.513538 C72.7729248,152.951844 72.5602512,153.443509 72.424567,153.98777 C72.2896451,154.532031 72.221803,155.074768 72.221803,155.615218 C72.221803,156.254001 72.3056528,156.845523 72.4741146,157.389784 C72.6418142,157.934808 72.8834541,158.405129 73.1990342,158.802272 C73.513852,159.199415 73.8965119,159.512709 74.347014,159.742152 C74.797516,159.971596 75.301377,160.085936 75.8578347,160.085936 M66.5970069,155.639611 C66.5970069,153.142412 67.391293,151.037782 68.9798654,149.326484 C70.6743933,147.500083 72.9673038,146.587645 75.8578347,146.587645 C77.2665111,146.587645 78.5395033,146.814802 79.6775736,147.269115 C80.8156439,147.723429 81.7860146,148.35154 82.5886857,149.154211 C83.3913569,149.956882 84.0095585,150.91277 84.4432905,152.022636 C84.8777849,153.13174 85.0942698,154.337652 85.0942698,155.639611 C85.0942698,156.425512 85.0043218,157.195405 84.8244259,157.948529 C84.6437678,158.702415 84.3762107,159.412851 84.019468,160.079838 C83.6634875,160.747587 83.2236573,161.361215 82.699215,161.922246 C82.1755349,162.483278 81.5710542,162.965795 80.8880596,163.372086 C80.2035404,163.776851 79.4420319,164.092431 78.603534,164.317301 C77.7635116,164.542171 76.8487867,164.654987 75.8578347,164.654987 C74.84249,164.654987 73.9109951,164.540647 73.06335,164.311203 C72.2164671,164.08176 71.4480982,163.762368 70.7605299,163.353029 C70.0729617,162.943689 69.4684809,162.456598 68.9493745,161.891756 C68.4287436,161.326151 67.9950115,160.710236 67.647416,160.042487 C67.298296,159.3755 67.0368371,158.669637 66.8607526,157.924136 C66.684668,157.179398 66.5970069,156.417889 66.5970069,155.639611" id="Fill-32" fill="#434040"></path>
                <polygon id="Fill-34" fill="#434040" points="89.712716 150.628214 86.126232 150.628214 86.126232 146.96779 99.1702097 146.96779 99.1702097 150.628214 95.5837256 150.628214 95.5837256 164.262189 89.712716 164.262189"></polygon>
                <path d="M109.463228,160.085936 C110.110396,160.085936 110.660756,159.948727 111.115069,159.67431 C111.570145,159.400655 111.942133,159.048486 112.23332,158.617803 C112.523746,158.188644 112.736419,157.706889 112.872103,157.174824 C113.006263,156.642759 113.074105,156.12289 113.074105,155.615218 C113.074105,154.952042 112.990255,154.34375 112.822556,153.791104 C112.654856,153.238458 112.413216,152.759752 112.097636,152.353461 C111.782056,151.948696 111.401683,151.627017 110.955755,151.389951 C110.509064,151.152123 110.012063,151.021012 109.463228,150.996619 C108.808438,151.013389 108.251218,151.160508 107.793093,151.438736 C107.334206,151.716965 106.959169,152.075995 106.668744,152.513538 C106.378318,152.951844 106.165645,153.443509 106.029961,153.98777 C105.895039,154.532031 105.827197,155.074768 105.827197,155.615218 C105.827197,156.254001 105.911046,156.845523 106.079508,157.389784 C106.247208,157.934808 106.488848,158.405129 106.804428,158.802272 C107.119246,159.199415 107.501906,159.512709 107.952408,159.742152 C108.40291,159.971596 108.906771,160.085936 109.463228,160.085936 M100.202401,155.639611 C100.202401,153.142412 100.996687,151.037782 102.585259,149.326484 C104.279787,147.500083 106.572698,146.587645 109.463228,146.587645 C110.871905,146.587645 112.144897,146.814802 113.282967,147.269115 C114.421038,147.723429 115.391408,148.35154 116.194079,149.154211 C116.996751,149.956882 117.61419,150.91277 118.048684,152.022636 C118.482416,153.13174 118.699663,154.337652 118.699663,155.639611 C118.699663,156.425512 118.609715,157.195405 118.42982,157.948529 C118.249161,158.702415 117.981604,159.412851 117.624862,160.079838 C117.268881,160.747587 116.828289,161.361215 116.305371,161.922246 C115.780166,162.483278 115.176448,162.965795 114.493453,163.372086 C113.808934,163.776851 113.047426,164.092431 112.208928,164.317301 C111.368905,164.542171 110.45418,164.654987 109.463228,164.654987 C108.447884,164.654987 107.516389,164.540647 106.668744,164.311203 C105.821861,164.08176 105.053492,163.762368 104.365924,163.353029 C103.678355,162.943689 103.073875,162.456598 102.554768,161.891756 C102.034137,161.326151 101.600405,160.710236 101.25281,160.042487 C100.90369,159.3755 100.642231,158.669637 100.466146,157.924136 C100.290062,157.179398 100.202401,156.417889 100.202401,155.639611" id="Fill-36" fill="#434040"></path>
                <polygon id="Fill-38" fill="#88878B" points="128.514052 164.262037 125.000746 164.262037 125.000746 150.173748 119.706776 150.173748 119.706776 146.649008 133.795064 146.649008 133.795064 150.173748 128.514052 150.173748"></polygon>
                <path d="M145.499885,157.224067 L145.499885,153.698564 C145.499885,153.216047 145.408412,152.759447 145.223943,152.329526 C145.039473,151.899605 144.787924,151.524568 144.46777,151.205177 C144.149903,150.886547 143.774104,150.634236 143.344945,150.450529 C142.914262,150.266059 142.458424,150.173824 141.975145,150.173824 C141.491865,150.173824 141.036027,150.266059 140.605344,150.450529 C140.176185,150.634236 139.800386,150.886547 139.481757,151.205177 C139.162365,151.524568 138.910054,151.899605 138.726346,152.329526 C138.541877,152.759447 138.450404,153.216047 138.450404,153.698564 L138.450404,157.224067 L145.499885,157.224067 Z M149.025387,164.262113 L145.499885,164.262113 L145.499885,160.736611 L138.450404,160.736611 L138.450404,164.262113 L134.937098,164.262113 L134.937098,153.698564 C134.937098,152.724382 135.121568,151.809657 135.489745,150.953627 C135.858684,150.098359 136.360258,149.350572 136.994467,148.711789 C137.629439,148.073768 138.374177,147.569907 139.229445,147.20173 C140.085475,146.832791 141.000962,146.648322 141.975145,146.648322 C142.949327,146.648322 143.864052,146.832791 144.720844,147.20173 C145.576112,147.569907 146.323137,148.073768 146.96192,148.711789 C147.600703,149.350572 148.103802,150.098359 148.472741,150.953627 C148.840918,151.809657 149.025387,152.724382 149.025387,153.698564 L149.025387,164.262113 Z" id="Fill-40" fill="#88878B"></path>
                <polygon id="Fill-42" fill="#88878B" points="165.767064 164.262037 161.493012 164.262037 158.102431 158.575497 154.699655 164.262037 150.449995 164.262037 155.854495 155.455522 150.449995 146.649008 154.699655 146.649008 158.102431 152.335548 161.493012 146.649008 165.767064 146.649008 160.362564 155.455522"></polygon>
                <polygon id="Fill-44" fill="#88878B" points="167.400001 164.261732 170.925503 164.261732 170.925503 146.648703 167.400001 146.648703"></polygon>
            </g>
        </g>
    </g>
</svg>